<?xml version="1.0" encoding="UTF-8"?>
<svg width="16px" height="12px" viewBox="0 0 16 12" version="1.1" xmlns="http://www.w3.org/2000/svg" xmlns:xlink="http://www.w3.org/1999/xlink">
    <defs>
        <path d="M33.3333333,14 L22.6666667,14 C21.2,14 20,15.2 20,16.6666667 L20,23.3333333 C20,24.8 21.2,26 22.6666667,26 L33.3333333,26 C34.8,26 36,24.8 36,23.3333333 L36,16.6666667 C36,15.2 34.8,14 33.3333333,14 Z M34.4,17.8666667 L29.1333333,21.4 C28.8,21.6 28.4,21.7333333 28,21.7333333 C27.6,21.7333333 27.2,21.6 26.8666667,21.4 L21.6,17.8666667 C21.3333333,17.6666667 21.2666667,17.2666667 21.4666667,16.9333333 C21.6666667,16.6666667 22.0666667,16.6 22.4,16.8 L27.6666667,20.3333333 C27.8666667,20.4666667 28.2,20.4666667 28.4,20.3333333 L33.6666667,16.8 C34,16.6 34.4,16.6666667 34.6,17 C34.7333333,17.2666667 34.6666667,17.6666667 34.4,17.8666667 Z" id="path-1"></path>
    </defs>
    <g id="Symbols" stroke="none" stroke-width="1" fill="none" fill-rule="evenodd">
        <g id="Icon/Input/Email" transform="translate(-20.000000, -14.000000)">
            <mask id="mask-2" fill="white">
                <use xlink:href="#path-1"></use>
            </mask>
            <use id="email" fill="#CCCCCC" fill-rule="nonzero" xlink:href="#path-1"></use>
        </g>
    </g>
</svg>