<?xml version="1.0" encoding="UTF-8"?>
<svg width="48px" height="57px" viewBox="0 0 48 57" version="1.1" xmlns="http://www.w3.org/2000/svg" xmlns:xlink="http://www.w3.org/1999/xlink">
    <!-- Generator: Sketch 47.1 (45422) - http://www.bohemiancoding.com/sketch -->
    <title>icon-unlock</title>
    <desc>Created with Sketch.</desc>
    <defs>
        <linearGradient x1="100%" y1="100%" x2="-3.33066907e-14%" y2="3.38788096e-14%" id="linearGradient-1">
            <stop stop-color="#A551A4" offset="0%"></stop>
            <stop stop-color="#558BC9" offset="100%"></stop>
        </linearGradient>
    </defs>
    <g id="XL-Device" stroke="none" stroke-width="1" fill="none" fill-rule="evenodd">
        <g id="Authentication-/-Reset-Password-/-Thank-You" transform="translate(-1056.000000, -344.000000)" fill-rule="nonzero" fill="url(#linearGradient-1)">
            <path d="M1099.2,367.753161 L1070.4,367.753161 L1070.4,361.103793 C1070.4,356.116767 1074,351.604696 1079.04,351.129742 C1084.8,350.654787 1089.6,355.166858 1089.6,360.628838 C1089.6,362.053703 1096.8,362.053703 1096.8,360.628838 C1096.8,351.604696 1089.6,344.242896 1080.48,344.005419 C1071.12,343.767941 1063.2,351.367219 1063.2,360.628838 L1063.2,367.753161 L1060.8,367.753161 C1058.16,367.753161 1056,369.890458 1056,372.502709 L1056,389.126129 C1056,395.775497 1061.28,401 1068,401 L1092,401 C1098.72,401 1104,395.775497 1104,389.126129 L1104,372.502709 C1104,369.890458 1101.84,367.753161 1099.2,367.753161 Z M1082.4,386.038922 L1082.4,389.126129 C1082.4,390.313516 1081.2,391.500903 1080,391.500903 C1078.8,391.500903 1077.6,390.313516 1077.6,389.126129 L1077.6,386.038922 C1076.16,385.32649 1075.2,383.664148 1075.2,382.001806 C1075.2,379.389555 1077.36,377.252258 1080,377.252258 C1082.64,377.252258 1084.8,379.389555 1084.8,382.001806 C1084.8,383.664148 1083.84,385.32649 1082.4,386.038922 Z" id="icon-unlock"></path>
        </g>
    </g>
</svg>