<?xml version="1.0" encoding="UTF-8"?>
<svg width="88px" height="130px" viewBox="0 0 88 130" version="1.1" xmlns="http://www.w3.org/2000/svg" xmlns:xlink="http://www.w3.org/1999/xlink">
    <!-- Generator: Sketch 47.1 (45422) - http://www.bohemiancoding.com/sketch -->
    <title>icon-broken-bottle</title>
    <desc>Created with Sketch.</desc>
    <defs>
        <linearGradient x1="50%" y1="0%" x2="50%" y2="100%" id="linearGradient-1">
            <stop stop-color="#FFFFFF" offset="0%"></stop>
            <stop stop-color="#000000" offset="54.3486926%"></stop>
            <stop stop-color="#FFFFFF" offset="100%"></stop>
        </linearGradient>
    </defs>
    <g id="Page-1" stroke="none" stroke-width="1" fill="none" fill-rule="evenodd">
        <g id="icon-broken-bottle">
            <g id="Broken-Bottle" transform="translate(27.000000, 0.000000)">
                <path d="M28.618186,35.7540943 C27.4098157,24.7047401 25.6134278,8.54967337 25.6134278,8.54967337 C27.2072571,7.51551811 23.7982333,5.03210918 25.3920626,4.20478498 C26.9858919,3.37746078 26.6095711,2.23989 25.2282524,0.480389742 C19.2764804,-0.036687884 17.5454046,0.000656611275 17.5454046,0.000656611275 C17.5454046,0.000656611275 15.826135,-0.0381242107 9.87436306,0.480389742 C8.4930443,2.23845367 8.16247229,3.37602445 9.75630163,4.20478498 C11.350131,5.03210918 8.04293509,7.51551811 9.63676443,8.54967337 C9.63676443,8.54967337 5.87798357,42.168337 5.5592177,45.5810494 C5.24045183,48.995198 0,50.960093 0,57.0113376 C0,57.0113376 0,59.9090149 0,64.3868268" id="Path" fill="#00A54F"></path>
                <g id="Group" transform="translate(0.540541, 46.846847)" fill-rule="nonzero">
                    <path d="M30.6998376,9.89349659 C30.6053174,8.88113612 30.2101553,5.21321201 29.7009539,0.553585601 M1.02952387,29.2468815 C1.02952387,41.8792554 1.02952387,66.015035 1.02952387,74.4163052 C1.02952387,85.3812235 36.4479536,85.3812235 36.4479536,74.4163052 C36.4479536,62.8308937 36.4479536,21.3237848 36.4479536,21.3237848 C36.4479536,15.2725402 31.0186035,13.3076452 30.6998376,9.89349659 L29.7434318,0.608210033 M32.0959141,54.4871329 C32.0959141,61.7693095 26.030508,67.6740487 18.5468889,67.6740487 C11.0647456,67.6740487 4.99786376,61.7707458 4.99786376,54.4871329 L4.99786376,37.3460096 C4.99786376,30.063833 11.0632699,24.1590938 18.5468889,24.1590938 C26.0290322,24.1590938 32.0959141,30.0623967 32.0959141,37.3460096 L32.0959141,54.4871329 Z" id="Combined-Shape" fill="#00A54F"></path>
                    <polygon id="Shape" fill="#FF0000" points="18.738016 35.1493067 16.0783763 43.7255721 7.46923836 43.7255721 14.433447 49.0681388 11.7738074 57.6883075 18.738016 52.3820744 25.7036701 57.6701406 23.042585 49.0711667 30.0082391 43.7255721 21.3991011 43.7255721"></polygon>
                </g>
            </g>
            <rect id="Rectangle" fill="url(#linearGradient-1)" transform="translate(44.000000, 60.000000) rotate(45.000000) translate(-44.000000, -60.000000) " x="43" y="0" width="2" height="120"></rect>
        </g>
    </g>
</svg>