<?xml version="1.0" encoding="UTF-8"?>
<svg width="16px" height="20px" viewBox="0 0 16 20" version="1.1" xmlns="http://www.w3.org/2000/svg" xmlns:xlink="http://www.w3.org/1999/xlink">
    <defs></defs>
    <g id="Symbols" stroke="none" stroke-width="1" fill="none" fill-rule="evenodd">
        <g id="Icon/Input/Password" transform="translate(-20.000000, -10.000000)" fill-rule="nonzero" fill="#CCCCCC">
            <path d="M34.4,18.8 L31.2,18.8 L24.8,18.8 L24.8,16.56 C24.8,14.88 26,13.36 27.68,13.2 C29.6,13.04 31.2,14.56 31.2,16.4 L31.2,19.674596 L33.6,19.674596 L33.6,16.4 C33.6,13.36 31.2,10.88 28.16,10.8 C25.04,10.72 22.4,13.28 22.4,16.4 L22.4,18.8 L21.6,18.8 C20.72,18.8 20,19.52 20,20.4 L20,26 C20,28.24 21.76,30 24,30 L32,30 C34.24,30 36,28.24 36,26 L36,20.4 C36,19.52 35.28,18.8 34.4,18.8 Z M28.8,24.96 L28.8,26 C28.8,26.4 28.4,26.8 28,26.8 C27.6,26.8 27.2,26.4 27.2,26 L27.2,24.96 C26.72,24.72 26.4,24.16 26.4,23.6 C26.4,22.72 27.12,22 28,22 C28.88,22 29.6,22.72 29.6,23.6 C29.6,24.16 29.28,24.72 28.8,24.96 Z" id="password"></path>
        </g>
    </g>
</svg>