<?xml version="1.0" encoding="UTF-8"?>
<svg width="68px" height="59px" viewBox="0 0 68 59" version="1.1" xmlns="http://www.w3.org/2000/svg" xmlns:xlink="http://www.w3.org/1999/xlink">
    <defs></defs>
    <g id="XL-Device" stroke="none" stroke-width="1" fill="none" fill-rule="evenodd">
        <g id="003---User---Sign-Up---Thank-You" transform="translate(-1047.000000, -413.000000)" fill-rule="nonzero" fill="#28AFB0">
            <g id="Group" transform="translate(850.000000, 413.000000)">
                <g id="Group-4" transform="translate(197.000000, 0.000000)">
                    <path d="M67.332,28.793 C67.332,25.875 65.039,23.586 62.125,23.586 L46.5,23.582093 C45.66797,23.582093 42.75,22.332093 45.043,18.789093 C46.5,16.082093 46.5,5.871093 46.5,5.871093 C46.5,2.956993 44.207,0.667993 41.293,0.667993 C38.375,0.667993 36.0821,2.957093 36.0821,5.874993 C36.0821,21.081993 21.5001,25.667993 21.5001,25.667993 L21.5001,52.749993 C28.1681,55.042993 29.8321,58.999993 38.1681,58.999993 L53.7931,58.999993 C56.7111,58.999993 59.0001,56.706993 59.0001,53.792993 C59.0001,52.542993 58.58213,51.499993 57.9571,50.667993 C60.8751,50.667993 63.1641,48.374993 63.1641,45.460993 C63.1641,44.210993 62.74613,42.960993 61.9141,41.917993 C63.9961,41.085963 65.2461,39.210993 65.2461,37.124993 C65.2461,35.874993 64.82813,34.624993 63.9961,33.581993 C65.875,32.956993 67.332,31.081993 67.332,28.792893 L67.332,28.793 Z" id="Shape"></path>
                    <path d="M11.082,21.5 L0.668,21.5 L0.668,56.918 L11.086,56.918 C14.629,56.918 17.336,54 17.336,50.668 L17.332093,27.75 C17.332093,24.207 14.625093,21.5 11.082093,21.5 L11.082,21.5 Z" id="Shape"></path>
                </g>
            </g>
        </g>
    </g>
</svg>