<?xml version="1.0" encoding="UTF-8"?>
<svg width="18px" height="18px" viewBox="0 0 18 18" version="1.1" xmlns="http://www.w3.org/2000/svg" xmlns:xlink="http://www.w3.org/1999/xlink">
    <!-- Generator: Sketch 46 (44423) - http://www.bohemiancoding.com/sketch -->
    <title>Group 20</title>
    <desc>Created with Sketch.</desc>
    <defs></defs>
    <g id="XL-Device" stroke="none" stroke-width="1" fill="none" fill-rule="evenodd">
        <g id="701---Tasks" transform="translate(-927.000000, -333.000000)" stroke="#28AFB0" stroke-width="0.7">
            <g id="Group-40" transform="translate(928.000000, 307.000000)">
                <g id="Group-12" transform="translate(0.000000, 25.000000)">
                    <g id="Group-20" transform="translate(0.000000, 2.000000)">
                        <circle id="Oval-2" fill-opacity="0" fill="#D8D8D8" cx="8" cy="8" r="8"></circle>
                        <g id="Group-18" transform="translate(3.000000, 4.000000)">
                            <circle id="Oval" cx="5.00252201" cy="3.61243893" r="3.05597734"></circle>
                            <g id="Group-7" transform="translate(0.000000, 6.000000)">
                                <path d="M5,5.99493904 C5,5.99493904 7.73321582,6.20694082 9.99433072,3.88669918 C9.99433072,3.88669918 10.1806863,1.62534693 8.41651977,0.954007981 L7.18657265,0.400447795 C7.18657265,0.400447795 7.04991186,0.176668145 7.09960669,0" id="Shape"></path>
                                <path d="M5,5.99493904 C5,5.99493904 2.26678418,6.20694082 0.00566928277,3.88669918 C0.00566928277,3.88669918 -0.180686341,1.62534693 1.58348023,0.954007981 L2.81342735,0.400447795 C2.81342735,0.400447795 2.95008814,0.176668145 2.90039331,0" id="Shape"></path>
                            </g>
                        </g>
                    </g>
                </g>
            </g>
        </g>
    </g>
</svg>