<?xml version="1.0" encoding="UTF-8"?>
<svg width="12px" height="41px" viewBox="0 0 12 41" version="1.1" xmlns="http://www.w3.org/2000/svg" xmlns:xlink="http://www.w3.org/1999/xlink">
    <!-- Generator: Sketch 50.2 (55047) - http://www.bohemiancoding.com/sketch -->
    <title>Group 3</title>
    <desc>Created with Sketch.</desc>
    <defs></defs>
    <g id="Symbols" stroke="none" stroke-width="1" fill="none" fill-rule="evenodd">
        <g id="Notification-/-New-/-Default" transform="translate(0.000000, -45.000000)">
            <g id="Group-3" transform="translate(0.000000, 45.000000)">
                <g id="Group-2">
                    <g id="Group" fill="#00A54F" fill-rule="nonzero">
                        <path d="M10.0525,15.4431632 C9.9445,14.2864269 8.678,2.89668631 8.678,2.89668631 C9.218,2.54630761 8.063,1.70491212 8.603,1.42460917 C9.143,1.14430622 9.0155,0.758889656 8.5475,0.162759246 C6.531,-0.0124300995 5.9445,0.000222464275 5.9445,0.000222464275 C5.9445,0.000222464275 5.362,-0.0129167366 3.3455,0.162759246 C2.8775,0.758403019 2.7655,1.14381958 3.3055,1.42460917 C3.8455,1.70491212 2.725,2.54630761 3.265,2.89668631 C3.265,2.89668631 1.9915,14.2869136 1.8835,15.4431632 C1.7755,16.5998996 0,17.2656191 0,19.315821 C0,19.315821 0,33.3787061 0,37.3039207 C0,41.0189081 12,41.0189081 12,37.3039207 C12,33.3787061 12,19.315821 12,19.315821 C12,17.2656191 10.1605,16.5998996 10.0525,15.4431632 Z M10.5255,30.5517844 C10.5255,33.0190343 8.4705,35.0195993 5.935,35.0195993 C3.4,35.0195993 1.3445,33.0195209 1.3445,30.5517844 L1.3445,24.7442576 C1.3445,22.2770076 3.3995,20.2764426 5.935,20.2764426 C8.47,20.2764426 10.5255,22.276521 10.5255,24.7442576 L10.5255,30.5517844 Z" id="Shape"></path>
                    </g>
                    <rect id="Rectangle" fill="#FFFFFF" x="1.2" y="20.4" width="9.6" height="14.4" rx="4.8"></rect>
                    <polygon id="Shape" fill="#FF0000" fill-rule="nonzero" points="5.99975513 24 5.09865149 26.9056959 2.18181818 26.9056959 4.54133848 28.7157931 3.64023484 31.6363636 5.99975513 29.8385765 8.35976516 31.6302086 7.45817179 28.7168189 9.81818182 26.9056959 6.90134851 26.9056959"></polygon>
                </g>
            </g>
        </g>
    </g>
</svg>