<?xml version="1.0" encoding="UTF-8"?>
<svg width="16px" height="16px" viewBox="0 0 16 16" version="1.1" xmlns="http://www.w3.org/2000/svg" xmlns:xlink="http://www.w3.org/1999/xlink">
    <!-- Generator: Sketch 46 (44423) - http://www.bohemiancoding.com/sketch -->
    <title>Group 19</title>
    <desc>Created with Sketch.</desc>
    <defs></defs>
    <g id="XL-Device" stroke="none" stroke-width="1" fill="none" fill-rule="evenodd">
        <g id="701---Tasks" transform="translate(-1095.000000, -504.000000)" fill-rule="nonzero" fill="#28AFB0">
            <g id="Group-35-Copy" transform="translate(1095.000000, 477.000000)">
                <g id="Group-4" transform="translate(0.000000, 25.000000)">
                    <g id="Group-19" transform="translate(0.000000, 2.000000)">
                        <path d="M2.58734694,13.4930101 L3.29281633,13.4930101 L3.29281633,13.6334545 C3.29281633,14.9236364 4.44808163,15.9729293 5.86804082,15.9729293 L7.01020408,15.9729293 L12.4609796,15.9729293 L12.9510204,15.9729293 L13.4122449,15.9729293 C14.8326122,15.9729293 15.9879184,14.923596 15.9879184,13.6334545 L15.9879184,4.84654545 C15.9879184,3.55672727 14.8326122,2.5070303 13.4122449,2.5070303 L12.7068163,2.5070303 L12.7068163,2.36662626 C12.7068163,1.07632323 11.5519184,0.0270707071 10.131551,0.0270707071 L9.18032653,0.0270707071 L3.7295102,0.0270707071 L2.58734694,0.0270707071 C1.16738776,0.0270707071 0.012122449,1.07636364 0.012122449,2.36662626 L0.012122449,11.1534545 C0.012122449,12.4432323 1.16738776,13.4930101 2.58734694,13.4930101 Z M13.4122449,3.27288889 C14.3691837,3.27288889 15.1446939,3.97745455 15.1446939,4.84654545 L15.1446939,13.6334545 C15.1446939,14.5025051 14.3691837,15.2071515 13.4122449,15.2071515 L12.9510612,15.2071515 L12.4610204,15.2071515 L7.0102449,15.2071515 L5.86808163,15.2071515 C4.9115102,15.2071515 4.13604082,14.5025051 4.13604082,13.6334545 L4.13604082,13.4930101 L4.13604082,12.7271515 L4.13604082,4.84654545 C4.13604082,3.97741414 4.9115102,3.27288889 5.86808163,3.27288889 L7.0102449,3.27288889 L11.864,3.27288889 L12.4610204,3.27288889 L12.7067755,3.27288889 L13.4122449,3.27288889 Z M0.854857143,2.36662626 C0.854857143,1.49749495 1.63032653,0.792929293 2.58734694,0.792929293 L3.7295102,0.792929293 L9.18032653,0.792929293 L10.131551,0.792929293 C11.0885714,0.792929293 11.864,1.49749495 11.864,2.36662626 L11.864,2.5070303 L7.0102449,2.5070303 L5.86808163,2.5070303 C4.44812245,2.5070303 3.29285714,3.55672727 3.29285714,4.84654545 L3.29285714,12.7271515 L2.58734694,12.7271515 C1.63032653,12.7271515 0.854857143,12.0221414 0.854857143,11.1534545 L0.854857143,2.36662626 Z" id="Shape"></path>
                        <path d="M5.57991837,5.6579798 C5.39473469,5.6579798 5.24481633,5.80642424 5.24481633,5.98973737 C5.24481633,6.1730101 5.39473469,6.32145455 5.57991837,6.32145455 L12.283102,6.32145455 C12.4682857,6.32145455 12.6182449,6.1730101 12.6182449,5.98973737 C12.6182449,5.80642424 12.4682857,5.6579798 12.283102,5.6579798 L5.57991837,5.6579798 Z" id="Shape"></path>
                        <path d="M6.63897959,8.24387879 C6.63897959,8.42719192 6.78938776,8.57563636 6.97457143,8.57563636 L13.2559184,8.57563636 C13.441102,8.57563636 13.591551,8.42719192 13.591551,8.24387879 C13.591551,8.06056566 13.441102,7.91171717 13.2559184,7.91171717 L6.97457143,7.91171717 C6.78938776,7.91171717 6.63897959,8.06056566 6.63897959,8.24387879 Z" id="Shape"></path>
                        <path d="M11.8021633,10.4975758 C11.8021633,10.3142626 11.6521224,10.1658586 11.4670204,10.1658586 L5.57991837,10.1658586 C5.39473469,10.1658586 5.24481633,10.3142626 5.24481633,10.4975758 C5.24481633,10.6808485 5.39473469,10.8298182 5.57991837,10.8298182 L11.4670204,10.8298182 C11.6521224,10.8298182 11.8021633,10.6808485 11.8021633,10.4975758 Z" id="Shape"></path>
                        <path d="M13.2559184,12.42 L7.73918367,12.42 C7.55404082,12.42 7.40408163,12.5684848 7.40408163,12.751798 C7.40408163,12.9350707 7.55404082,13.0834747 7.73918367,13.0834747 L13.2559184,13.0834747 C13.441102,13.0834747 13.591551,12.9350707 13.591551,12.751798 C13.5915102,12.5684848 13.441102,12.42 13.2559184,12.42 Z" id="Shape"></path>
                    </g>
                </g>
            </g>
        </g>
    </g>
</svg>