<?xml version="1.0" encoding="UTF-8"?>
<svg width="12px" height="42px" viewBox="0 0 12 42" version="1.1" xmlns="http://www.w3.org/2000/svg" xmlns:xlink="http://www.w3.org/1999/xlink">
    <!-- Generator: Sketch 50.2 (55047) - http://www.bohemiancoding.com/sketch -->
    <title>Group</title>
    <desc>Created with Sketch.</desc>
    <defs></defs>
    <g id="Symbols" stroke="none" stroke-width="1" fill="none" fill-rule="evenodd">
        <g id="Notification-/-Archive-/-Default" transform="translate(0.000000, -47.000000)" fill-rule="nonzero">
            <g id="Group" transform="translate(0.000000, 47.000000)">
                <path d="M8.32587669,2.610815 C8.32599625,2.61220884 8.32614299,2.61358288 8.32631742,2.61493574 C8.32582425,2.61111077 8.32475492,2.60629327 8.32307167,2.60045009 Z M8.28828879,2.51490008 C8.27351364,2.48332759 8.25411532,2.44462096 8.22949395,2.3982536 C8.21529457,2.3716225 8.21529457,2.3716225 8.20030164,2.34376922 C8.05316422,2.07061667 8.00574022,1.96888923 7.97215066,1.79723992 C7.90492051,1.45368059 8.04136339,1.13205266 8.37501161,0.961111913 C8.48475448,0.904886447 8.50255783,0.908521019 8.29050722,0.640664418 C6.99295874,0.532119195 6.26359681,0.496969794 5.956811,0.500094179 C5.95345415,0.50013665 5.95345415,0.50013665 5.93337095,0.500095704 C5.93513568,0.500128825 5.93513568,0.500128825 5.93155568,0.500081559 C5.62556957,0.496829999 4.89790966,0.531952746 3.6025997,0.640605308 C3.39680783,0.901324861 3.4157322,0.900676057 3.53348839,0.961111913 C3.86222919,1.1295384 4.00165189,1.44415891 3.94403885,1.78463766 C3.91487964,1.95696136 3.86995021,2.05987661 3.73094768,2.33326353 C3.71679587,2.36111678 3.71679587,2.36111678 3.70341211,2.38771828 C3.67889804,2.43665018 3.65997391,2.47693902 3.64592946,2.50927605 L3.79687104,2.60594248 L3.7618226,2.91534583 C3.75097633,3.01109534 3.75097633,3.01109534 3.70215632,3.44249018 C3.63706196,4.01797068 3.63706196,4.01797068 3.54484405,4.83414774 C3.38210761,6.27494249 3.21937155,7.71907572 3.06748715,9.07158898 C3.06290462,9.11239686 3.06290462,9.11239686 3.05832234,9.15320677 C2.67374893,12.5783149 2.42590491,14.8181169 2.38127787,15.2896898 C2.34557748,15.6670937 2.19064526,16.0010247 1.92060371,16.3688079 C1.80511165,16.5261024 1.24923358,17.1891244 1.2858046,17.1427598 C0.737396323,17.8167792 0.5,18.3339325 0.5,19.0649662 C0.5,19.6849229 0.5,19.6849229 0.5,22.1647498 C0.5,25.2645334 0.5,25.2645334 0.5,28.9842737 C0.5,34.5105145 0.5,34.5105145 0.5,38.0038698 C0.5,39.6601533 0.800069571,40.5184339 1.23535269,40.8255776 C1.38824213,40.9334592 1.52606433,40.9593608 1.75335995,40.9534735 C1.78810688,40.9525126 1.78810688,40.9525126 1.829,40.9520663 L10.0415,40.9520663 C10.0823892,40.9525087 10.0823892,40.9525087 10.1178373,40.9534642 C10.3693349,40.9597944 10.5330772,40.9300923 10.7113217,40.8097106 C11.1819463,40.4918629 11.5,39.6391419 11.5,38.0038698 C11.5,34.5105145 11.5,34.5105145 11.5,28.9842737 C11.5,25.2645334 11.5,25.2645334 11.5,22.1647498 C11.5,19.6849229 11.5,19.6849229 11.5,19.0649662 C11.5,18.329818 11.2491414,17.810783 10.6678414,17.1257754 C10.7995258,17.281 10.1576,16.5420408 10.0309412,16.3750806 C9.75117619,16.0062979 9.59075446,15.6706027 9.55472213,15.2896898 C9.51008061,14.8177653 9.26345555,12.5780982 8.88089084,9.15296128 C8.87644645,9.11317123 8.87644645,9.11317123 8.87200183,9.07338306 C8.72087793,7.72055432 8.55895678,6.27596066 8.39703526,4.83462351 C8.30527917,4.01813238 8.30527917,4.01813238 8.24051077,3.44241434 C8.1919352,3.010836 8.1919352,3.010836 8.18114316,2.91504273 L8.14630717,2.60582835 L8.28828879,2.51490008 Z M3.61377384,2.59968192 C3.61356944,2.60093702 3.61341028,2.60211092 3.61329547,2.60320448 C3.6136399,2.59992381 3.61381073,2.59651136 3.61381655,2.5929895 Z M10.6678414,17.1257754 C10.6599342,17.1164575 10.6519659,17.1071088 10.6439362,17.0977286 C10.6582389,17.114437 10.6691231,17.1272007 10.6769175,17.1363936 Z M8.85091481,1.84076426 C8.84432871,1.84422537 8.83768662,1.84767183 8.83098839,1.85110359 C8.84580955,1.84351014 8.85972353,1.83315868 8.87249558,1.82084928 Z" id="Shape" stroke="#00A54F" fill="#FFFFFF"></path>
                <polygon id="Shape" fill="#FF0000" points="5.99975513 24 5.09865149 26.9056959 2.18181818 26.9056959 4.54133848 28.7157931 3.64023484 31.6363636 5.99975513 29.8385765 8.35976516 31.6302086 7.45817179 28.7168189 9.81818182 26.9056959 6.90134851 26.9056959"></polygon>
            </g>
        </g>
    </g>
</svg>