<?xml version="1.0" encoding="UTF-8"?>
<svg width="16px" height="16px" viewBox="0 0 16 16" version="1.1" xmlns="http://www.w3.org/2000/svg" xmlns:xlink="http://www.w3.org/1999/xlink">
    <!-- Generator: Sketch 46 (44423) - http://www.bohemiancoding.com/sketch -->
    <title>Group 8</title>
    <desc>Created with Sketch.</desc>
    <defs></defs>
    <g id="XL-Device" stroke="none" stroke-width="1" fill="none" fill-rule="evenodd">
        <g id="701---Tasks" transform="translate(-1191.000000, -334.000000)" fill-rule="nonzero" fill="#28AFB0">
            <g id="Group-39" transform="translate(1191.000000, 307.000000)">
                <g id="Group-10" transform="translate(0.000000, 25.000000)">
                    <g id="Group-8" transform="translate(0.000000, 2.000000)">
                        <path d="M13.7142857,1.71428571 L13.7142857,0 L12.5714286,0 L12.5714286,1.71428571 L10.2857143,1.71428571 L10.2857143,0 L9.14285714,0 L9.14285714,1.71428571 L6.85714286,1.71428571 L6.85714286,0 L5.71428571,0 L5.71428571,1.71428571 L3.42857143,1.71428571 L3.42857143,0 L2.28571429,0 L2.28571429,1.71428571 L0,1.71428571 L0,15.4285714 L16,15.4285714 L16,1.71428571 L13.7142857,1.71428571 Z M2.28571429,2.85714286 L2.28571429,4 L3.42857143,4 L3.42857143,2.85714286 L5.71428571,2.85714286 L5.71428571,4 L6.85714286,4 L6.85714286,2.85714286 L9.14285714,2.85714286 L9.14285714,4 L10.2857143,4 L10.2857143,2.85714286 L12.5714286,2.85714286 L12.5714286,4 L13.7142857,4 L13.7142857,2.85714286 L14.8571429,2.85714286 L14.8571429,5.14285714 L1.14285714,5.14285714 L1.14285714,2.85714286 L2.28571429,2.85714286 Z M1.14285714,14.2857143 L1.14285714,6.28571429 L14.8571429,6.28571429 L14.8571429,14.2857143 L1.14285714,14.2857143 Z" id="Shape"></path>
                        <rect id="Rectangle-path" x="5.71428571" y="8.57142857" width="1.14285714" height="1.14285714"></rect>
                        <rect id="Rectangle-path" x="8" y="8.57142857" width="1.14285714" height="1.14285714"></rect>
                        <rect id="Rectangle-path" x="10.2857143" y="8.57142857" width="1.14285714" height="1.14285714"></rect>
                        <rect id="Rectangle-path" x="3.42857143" y="10.8571429" width="1.14285714" height="1.14285714"></rect>
                        <rect id="Rectangle-path" x="5.71428571" y="10.8571429" width="1.14285714" height="1.14285714"></rect>
                        <rect id="Rectangle-path" x="8" y="10.8571429" width="1.14285714" height="1.14285714"></rect>
                    </g>
                </g>
            </g>
        </g>
    </g>
</svg>