<?xml version="1.0" encoding="UTF-8"?>
<svg width="476px" height="112px" viewBox="0 0 476 112" version="1.1" xmlns="http://www.w3.org/2000/svg" xmlns:xlink="http://www.w3.org/1999/xlink">
    <!-- Generator: Sketch 46 (44423) - http://www.bohemiancoding.com/sketch -->
    <title>g5828 Clipped</title>
    <desc>Created with Sketch.</desc>
    <defs></defs>
    <g id="Assets" stroke="none" stroke-width="1" fill="none" fill-rule="evenodd">
        <g id="g5828-Clipped" transform="translate(237.500000, 56.000000) scale(-1, 1) rotate(-180.000000) translate(-237.500000, -56.000000) translate(-1.000000, 0.000000)" fill-rule="nonzero">
            <g id="g5828" transform="translate(0.608000, 0.544000)">
                <path d="M475.53792,60.201744 L475.53792,57.849264 C475.53792,57.849264 472.98576,56.832144 472.98576,53.836944 L472.99824,3.548784 C472.99824,1.782864 471.5568,0.33456 469.79088,0.33456 L459.90672,0.33456 L438.16032,34.642704 C438.16032,34.642704 438.61584,31.803504 438.61584,28.227984 L438.61584,0.335184 L426.57264,0.335184 L426.57264,60.201744 L434.37888,60.201744 C438.36,60.201744 441.2616,58.56 443.352,55.272144 C445.12416,52.489104 461.55408,26.618064 461.55408,26.618064 C461.55408,26.618064 460.96752,28.377744 460.96752,33.101424 L460.96752,60.201744 L475.53792,60.201744 L475.53792,60.201744 Z M244.2336,60.201744 L244.2336,3.548784 C244.2336,1.782864 242.78592,0.335184 241.02,0.335184 L231.13584,0.335184 L209.38944,34.642704 C209.38944,34.642704 209.83872,31.803504 209.83872,28.227984 L209.83872,0.335184 L197.80176,0.335184 L197.80176,60.201744 L205.60176,60.201744 C209.58912,60.201744 212.49072,58.56 214.57488,55.272144 C216.34704,52.489104 232.7832,26.618064 232.7832,26.618064 C232.7832,26.618064 232.19664,28.377744 232.19664,33.101424 L232.19664,60.201744 L244.2336,60.201744 L244.2336,60.201744 Z M95.24736,60.201744 L79.14816,60.201744 L79.14816,37.257264 L65.06448,37.257264 L65.06448,60.201744 L46.36944,60.201744 L46.36944,57.849264 C46.36944,57.849264 48.9216,56.888304 48.9216,53.836944 L48.9216,0.335184 L65.06448,0.335184 L65.06448,26.312304 L79.14816,26.312304 L79.14816,0.335184 L95.24736,0.335184 L95.24736,60.201744 L95.24736,60.201744 Z M147.39504,60.201744 L111.51504,60.201744 L111.51504,5.689104 C111.51504,2.575344 114.4728,0.335184 117.56784,0.335184 L147.39504,0.335184 C149.16096,0.335184 150.61488,1.789104 150.61488,3.555024 L150.61488,11.280144 L130.0416,11.280144 C128.7,11.280144 127.62048,12.384624 127.62048,13.719984 L127.62048,26.318544 L145.95984,26.318544 L145.95984,37.257264 L127.62048,37.257264 L127.62048,49.263024 L150.61488,49.263024 L150.61488,56.975664 C150.61488,58.754064 149.16096,60.201744 147.39504,60.201744 L147.39504,60.201744 Z M181.38432,60.201744 L165.27888,60.201744 L165.27888,3.548784 C165.27888,1.782864 166.73904,0.335184 168.50496,0.335184 L181.38432,0.335184 L181.38432,60.201744 Z M409.70592,60.201744 L373.83216,60.201744 L373.83216,5.689104 C373.83216,2.706384 376.77744,0.335184 379.87248,0.335184 L409.70592,0.335184 C411.47184,0.335184 412.92576,1.789104 412.92576,3.555024 L412.92576,11.280144 L392.34624,11.280144 C391.01088,11.280144 389.93136,12.384624 389.93136,13.719984 L389.93136,26.318544 L408.27072,26.318544 L408.27072,37.257264 L389.93136,37.257264 L389.93136,49.263024 L412.92576,49.263024 L412.92576,56.975664 C412.92576,58.754064 411.47184,60.201744 409.70592,60.201744 L409.70592,60.201744 Z M296.37504,60.201744 L260.50752,60.201744 L260.50752,5.689104 C260.50752,2.706384 263.4528,0.335184 266.55408,0.335184 L296.37504,0.335184 C298.1472,0.335184 299.60112,1.789104 299.60112,3.555024 L299.60112,11.280144 L279.0216,11.280144 C277.68624,11.280144 276.60672,12.384624 276.60672,13.719984 L276.60672,26.318544 L294.94608,26.318544 L294.94608,37.257264 L276.60672,37.257264 L276.60672,49.263024 L299.60112,49.263024 L299.60112,56.975664 C299.60112,58.754064 298.1472,60.201744 296.37504,60.201744 L296.37504,60.201744 Z M364.51584,60.201744 L352.89696,60.201744 C350.10144,60.201744 347.95488,59.496624 345.73968,56.938224 C343.51824,54.3792 329.33472,38.031024 329.33472,38.031024 L329.33472,60.201744 L313.22928,60.201744 L313.22928,3.548784 C313.22928,1.782864 314.6832,0.33456 316.44912,0.33456 L329.33472,0.33456 L329.33472,27.485424 C329.33472,27.485424 341.40912,8.596944 343.51824,5.289744 C345.64608,1.970064 347.74896,0.335184 352.57872,0.335184 L365.80752,0.335184 L343.21248,35.659824 L364.51584,60.201744 Z" id="path5834" fill="#265A38"></path>
                <path d="M16.36128,38.405424 C15.55008,37.812624 14.49552,38.586384 14.80752,39.516144 C15.25056,40.845264 23.3376,65.780304 23.3376,65.780304 L1.01088,82.00368 C0.20592,82.597104 0.624,83.82576 1.60368,83.820144 C3.00768,83.813904 29.2032,83.820144 29.2032,83.820144 C29.2032,83.820144 37.30896,108.73584 37.72704,110.071824 C38.02656,111.007824 39.3432,111.026544 39.64896,110.065584 C40.07328,108.730224 48.17904,83.820144 48.17904,83.820144 C48.17904,83.820144 74.37456,83.813904 75.77856,83.820144 C76.75824,83.82576 77.17632,82.597104 76.36512,82.00368 L63.04896,72.326064 L47.28672,72.326064 L42.41952,87.30144 L37.55232,72.326064 L21.79008,72.326064 L34.54464,63.065904 L29.6712,48.083664 C29.6712,48.083664 17.17248,38.991984 16.36128,38.405424" id="path5836" fill="#ED1C24"></path>
            </g>
        </g>
    </g>
</svg>