<?xml version="1.0" encoding="UTF-8"?>
<svg width="30px" height="30px" viewBox="0 0 30 30" version="1.1" xmlns="http://www.w3.org/2000/svg" xmlns:xlink="http://www.w3.org/1999/xlink">
    <!-- Generator: Sketch 46 (44423) - http://www.bohemiancoding.com/sketch -->
    <title>path5836</title>
    <desc>Created with Sketch.</desc>
    <defs></defs>
    <g id="Page-1" stroke="none" stroke-width="1" fill="none" fill-rule="evenodd">
        <path d="M6.21001153,0.0835917595 C5.89067683,-0.155288559 5.47554171,0.15651312 5.59836275,0.531178041 C5.77276863,1.06677286 8.95628998,11.1148334 8.95628998,11.1148334 L0.167216384,17.6523591 C-0.149661899,17.8914909 0.0149182945,18.3866018 0.400576359,18.3843387 C0.953271037,18.3818242 11.2653255,18.3843387 11.2653255,18.3843387 C11.2653255,18.3843387 14.4562161,28.4246042 14.6207963,28.962965 C14.7387045,29.3401445 15.2570093,29.3476881 15.3773739,28.9604505 C15.5444105,28.4223411 18.7353011,18.3843387 18.7353011,18.3843387 C18.7353011,18.3843387 29.0473556,18.3818242 29.6000503,18.3843387 C29.9857084,18.3866018 30.1502886,17.8914909 29.8309539,17.6523591 L24.5889519,13.7525751 L18.384033,13.7525751 L16.4680248,19.7871948 L14.5520165,13.7525751 L8.34709762,13.7525751 L13.3680217,10.021013 L11.4495571,3.98362728 C11.4495571,3.98362728 6.52934623,0.319957549 6.21001153,0.0835917595" id="path5836" fill="#FFFFFF" fill-rule="nonzero" transform="translate(15.000000, 14.624184) scale(-1, 1) rotate(-180.000000) translate(-15.000000, -14.624184) "></path>
    </g>
</svg>