<?xml version="1.0" encoding="UTF-8"?>
<svg width="155px" height="37px" viewBox="0 0 155 37" version="1.1" xmlns="http://www.w3.org/2000/svg" xmlns:xlink="http://www.w3.org/1999/xlink">
    <!-- Generator: Sketch 46 (44423) - http://www.bohemiancoding.com/sketch -->
    <title>Group</title>
    <desc>Created with Sketch.</desc>
    <defs></defs>
    <g id="Symbols" stroke="none" stroke-width="1" fill="none" fill-rule="evenodd">
        <g id="Logo" transform="translate(-45.000000, -32.000000)" fill-rule="nonzero" fill="#FFFFFF">
            <g id="Group" transform="translate(45.000000, 32.000000)">
                <path d="M154.75024,36.955728 L154.75024,36.171568 C154.75024,36.171568 153.91918,35.832528 153.91918,34.834128 L153.923244,18.071408 C153.923244,17.482768 153.453867,17 152.87883,17 L149.660249,17 L142.578963,28.436048 C142.578963,28.436048 142.727294,27.489648 142.727294,26.297808 L142.727294,17.000208 L138.805664,17.000208 L138.805664,36.955728 L141.347612,36.955728 C142.643985,36.955728 143.588834,36.40848 144.269531,35.312528 C144.8466,34.384848 150.196679,25.761168 150.196679,25.761168 C150.196679,25.761168 150.005677,26.347728 150.005677,27.922288 L150.005677,36.955728 L154.75024,36.955728 L154.75024,36.955728 Z M79.4305563,36.955728 L79.4305563,18.071408 C79.4305563,17.482768 78.9591479,17.000208 78.3841109,17.000208 L75.1655294,17.000208 L68.0842437,28.436048 C68.0842437,28.436048 68.2305429,27.489648 68.2305429,26.297808 L68.2305429,17.000208 L64.3109445,17.000208 L64.3109445,36.955728 L66.8508605,36.955728 C68.1492655,36.955728 69.0941143,36.40848 69.7727798,35.312528 C70.3498487,34.384848 75.7019597,25.761168 75.7019597,25.761168 C75.7019597,25.761168 75.510958,26.347728 75.510958,27.922288 L75.510958,36.955728 L79.4305563,36.955728 L79.4305563,36.955728 Z M30.9161294,36.955728 L25.6737429,36.955728 L25.6737429,29.307568 L21.0876706,29.307568 L21.0876706,36.955728 L15,36.955728 L15,36.171568 C15,36.171568 15.8310605,35.851248 15.8310605,34.834128 L15.8310605,17.000208 L21.0876706,17.000208 L21.0876706,25.659248 L25.6737429,25.659248 L25.6737429,17.000208 L30.9161294,17.000208 L30.9161294,36.955728 L30.9161294,36.955728 Z M47.8969916,36.955728 L36.2133782,36.955728 L36.2133782,18.784848 C36.2133782,17.746928 37.1765143,17.000208 38.1843529,17.000208 L47.8969916,17.000208 C48.4720286,17.000208 48.9454689,17.484848 48.9454689,18.073488 L48.9454689,20.648528 L42.2461866,20.648528 C41.809321,20.648528 41.4577966,21.016688 41.4577966,21.461808 L41.4577966,25.661328 L47.4296471,25.661328 L47.4296471,29.307568 L41.4577966,29.307568 L41.4577966,33.309488 L48.9454689,33.309488 L48.9454689,35.880368 C48.9454689,36.473168 48.4720286,36.955728 47.8969916,36.955728 L47.8969916,36.955728 Z M58.9649294,36.955728 L53.7205109,36.955728 L53.7205109,18.071408 C53.7205109,17.482768 54.1959832,17.000208 54.7710202,17.000208 L58.9649294,17.000208 L58.9649294,36.955728 Z M133.31335,36.955728 L121.631768,36.955728 L121.631768,18.784848 C121.631768,17.790608 122.59084,17.000208 123.598679,17.000208 L133.31335,17.000208 C133.888387,17.000208 134.361827,17.484848 134.361827,18.073488 L134.361827,20.648528 L127.660513,20.648528 C127.225679,20.648528 126.874155,21.016688 126.874155,21.461808 L126.874155,25.661328 L132.846005,25.661328 L132.846005,29.307568 L126.874155,29.307568 L126.874155,33.309488 L134.361827,33.309488 L134.361827,35.880368 C134.361827,36.473168 133.888387,36.955728 133.31335,36.955728 L133.31335,36.955728 Z M96.4093866,36.955728 L84.729837,36.955728 L84.729837,18.784848 C84.729837,17.790608 85.6889092,17.000208 86.6987798,17.000208 L96.4093866,17.000208 C96.9864555,17.000208 97.4598958,17.484848 97.4598958,18.073488 L97.4598958,20.648528 L90.7585815,20.648528 C90.3237479,20.648528 89.9722235,21.016688 89.9722235,21.461808 L89.9722235,25.661328 L95.9440739,25.661328 L95.9440739,29.307568 L89.9722235,29.307568 L89.9722235,33.309488 L97.4598958,33.309488 L97.4598958,35.880368 C97.4598958,36.473168 96.9864555,36.955728 96.4093866,36.955728 L96.4093866,36.955728 Z M118.598092,36.955728 L114.814634,36.955728 C113.904328,36.955728 113.205343,36.720688 112.484007,35.867888 C111.760639,35.01488 107.142055,29.565488 107.142055,29.565488 L107.142055,36.955728 L101.897637,36.955728 L101.897637,18.071408 C101.897637,17.482768 102.371077,17 102.946114,17 L107.142055,17 L107.142055,26.050288 C107.142055,26.050288 111.073845,19.754128 111.760639,18.651728 C112.453528,17.545168 113.138289,17.000208 114.711005,17.000208 L119.018703,17.000208 L111.661074,28.775088 L118.598092,36.955728 Z" id="path5834" transform="translate(84.875120, 26.977864) scale(-1, 1) rotate(-180.000000) translate(-84.875120, -26.977864) "></path>
                <path d="M5.13687475,0.0691464737 C4.87272349,-0.128453526 4.52932686,0.129466474 4.63092349,0.439386474 C4.77519072,0.882426474 7.40857559,9.19410647 7.40857559,9.19410647 L0.138320133,14.6018985 C-0.123799195,14.7997065 0.0123403008,15.2092585 0.331353746,15.2073865 C0.78853862,15.2053065 9.3185924,15.2073865 9.3185924,15.2073865 C9.3185924,15.2073865 11.9580731,23.5126185 12.0942126,23.9579465 C12.1917453,24.2699465 12.6204832,24.2761865 12.7200479,23.9558665 C12.8582193,23.5107465 15.4977,15.2073865 15.4977,15.2073865 C15.4977,15.2073865 24.0277537,15.2053065 24.4849386,15.2073865 C24.8039521,15.2092585 24.9400916,14.7997065 24.6759403,14.6018985 L20.3397958,11.3760265 L15.2071336,11.3760265 L13.622226,16.3678185 L12.0373185,11.3760265 L6.90465627,11.3760265 L11.0579269,8.28930647 L9.47098736,3.29522647 C9.47098736,3.29522647 5.40102602,0.264666474 5.13687475,0.0691464737" id="path5836" transform="translate(12.407887, 12.097015) scale(-1, 1) rotate(-180.000000) translate(-12.407887, -12.097015) "></path>
            </g>
        </g>
    </g>
</svg>